<svg width="20" height="20" fill="none" xmlns="http://www.w3.org/2000/svg">
  <path fill-rule="evenodd" clip-rule="evenodd" d="M14.875 5.648c0-.474 0-.816.024-1.082.023-.273.064-.373.084-.405.005-.009.007-.01.01-.012a.299.299 0 0 1 .086-.038c.13-.04.356-.07.755-.07s.624.03.754.07c.058.018.081.034.086.038h.001c.003.002.005.003.01.012.02.032.06.132.084.405.022.266.023.608.023 1.082V14.351c0 .561-.032.94-.084 1.198-.053.258-.114.332-.124.343a.051.051 0 0 1-.019.012.426.426 0 0 1-.105.028c-.138.024-.32.026-.626.026-.312 0-.496-.002-.635-.026a.42.42 0 0 1-.105-.028.04.04 0 0 1-.015-.01c-.01-.01-.07-.082-.121-.342-.052-.259-.083-.639-.083-1.2V5.648Zm.959-3.023c-.806 0-1.633.085-2.066.807-.189.315-.252.678-.28 1.013-.03.334-.03.736-.03 1.177v8.73c0 .596.032 1.084.11 1.476.078.391.215.753.476 1.033.274.294.61.415.916.468.272.046.575.046.84.046h.067c.261 0 .562 0 .833-.046.306-.053.64-.174.915-.466.262-.278.401-.64.481-1.032.08-.393.113-.882.113-1.48V5.623c0-.441 0-.843-.029-1.177-.029-.335-.092-.698-.28-1.013-.434-.722-1.261-.807-2.066-.807ZM9.066 7.917c-.02.188-.022.406-.022.694V14.722a.73.73 0 0 1 0 .02c-.02.717.11.959.187 1.042.067.072.236.174.77.174.52 0 .694-.101.765-.177.08-.084.213-.326.19-1.036a.57.57 0 0 1 0-.023V8.611c0-.288-.001-.507-.022-.694-.02-.186-.055-.28-.086-.33v-.002c-.02-.034-.124-.21-.848-.21s-.828.176-.847.21l-.001.001c-.03.05-.065.145-.086.33Zm-1.13-1.059c.4-.666 1.137-.9 2.064-.9s1.665.234 2.064.9c.177.297.247.619.278.902.03.274.03.568.03.83v6.121c.025.813-.1 1.539-.575 2.042-.485.515-1.168.622-1.797.622-.635 0-1.32-.106-1.804-.624-.472-.505-.59-1.231-.568-2.039V8.591c0-.263 0-.557.03-.83.032-.284.1-.606.278-.903ZM3.231 12.1c-.022.22-.022.485-.022.84v2.305c0 .4.096.51.143.55.077.065.283.163.815.163.52 0 .73-.097.81-.165.05-.042.148-.154.148-.548V12.952l-.005-.168a9.611 9.611 0 0 0-.037-.678c-.025-.227-.062-.333-.091-.385v-.001c-.008-.017-.08-.178-.825-.178-.748 0-.835.163-.847.185v.002c-.03.049-.067.151-.089.37ZM2.098 11.01c.409-.695 1.173-.886 2.069-.886.897 0 1.655.192 2.055.894.173.303.237.637.27.934.026.247.035.526.044.8l.006.162V15.245c0 .62-.16 1.218-.654 1.633-.465.39-1.089.497-1.721.497-.638 0-1.265-.105-1.73-.498-.493-.418-.645-1.02-.645-1.632V12.917c0-.326 0-.66.03-.957.03-.305.096-.643.276-.949Z" fill="#343434" fill-opacity=".5"/>
</svg>
