<svg xmlns="http://www.w3.org/2000/svg" viewBox="0 0 24 24">
  <path d="M12 1.28579L15.0224 7.01427C15.1815 7.31594 15.4716 7.52671 15.8077 7.58487L22.1898 8.68913L17.6757 13.3338L18.1059 13.752L17.6757 13.3338C17.438 13.5784 17.3271 13.9194 17.3757 14.257L18.2977 20.668L12.4854 17.8101C12.1793 17.6595 11.8207 17.6595 11.5146 17.8101L5.70234 20.668L6.6243 14.257C6.67285 13.9194 6.56205 13.5784 6.32432 13.3338L1.81018 8.68913L8.19226 7.58487C8.52835 7.52671 8.81845 7.31594 8.97761 7.01428L8.44695 6.73429L8.97761 7.01427L12 1.28579ZM5.53226 20.7516C5.53232 20.7516 5.53239 20.7515 5.53245 20.7515L5.53226 20.7516ZM12.0883 1.11843L12.0884 1.11815L12 1.07149L12.0884 1.11815C12.0884 1.11825 12.0883 1.11834 12.0883 1.11843Z" />
</svg>