<svg width="14" height="14" fill="none" xmlns="http://www.w3.org/2000/svg">
  <path d="M10.824 14a.79.79 0 0 1-.474-.16L7 11.33l-3.35 2.51a.787.787 0 0 1-.952-.003.847.847 0 0 1-.294-.422.885.885 0 0 1-.002-.522L3.65 8.678.33 6.233a.852.852 0 0 1-.292-.425.889.889 0 0 1 0-.523.85.85 0 0 1 .294-.423.791.791 0 0 1 .475-.164l4.111-.007L6.23.581a.849.849 0 0 1 .296-.42.79.79 0 0 1 .951 0 .849.849 0 0 1 .296.42l1.287 4.11 4.132.007a.79.79 0 0 1 .476.164.85.85 0 0 1 .293.423.887.887 0 0 1 0 .523.85.85 0 0 1-.291.425l-3.32 2.445 1.25 4.214a.884.884 0 0 1-.003.523.848.848 0 0 1-.294.422.783.783 0 0 1-.478.163Z"/>
</svg>
